# MagicaVoxel @ Ephtracy

# group
o 

# material
mtllib Flower_for_her.mtl
usemtl palette

# normals
vn -1 0 0
vn 1 0 0
vn 0 0 1
vn 0 0 -1
vn 0 -1 0
vn 0 1 0

# texcoords
vt 0.861328 0.5
vt 0.869141 0.5
vt 0.873047 0.5
vt 0.904297 0.5
vt 0.912109 0.5

# verts
v -0.5 0.3 -1.5
v -0.5 0.3 -1.6
v -0.5 0.5 -1.5
v -0.5 0.5 -1.6
v -0.5 1.2 -1.5
v -0.5 1.2 -1.6
v -0.5 1.8 -1.5
v -0.5 1.8 -1.6
v -0.4 0.2 -1.5
v -0.4 0.2 -1.6
v -0.4 0.3 -1.5
v -0.4 0.3 -1.6
v -0.4 0.5 -1.5
v -0.4 0.5 -1.6
v -0.4 0.6 -1.5
v -0.4 0.6 -1.6
v -0.4 1.1 -1.5
v -0.4 1.1 -1.6
v -0.4 1.2 -1.5
v -0.4 1.2 -1.6
v -0.4 1.8 -1.5
v -0.4 1.8 -1.6
v -0.4 1.9 -1.5
v -0.4 1.9 -1.6
v -0.3 0.1 -1.5
v -0.3 0.1 -1.6
v -0.3 0.2 -1.5
v -0.3 0.2 -1.6
v -0.3 1 -1.5
v -0.3 1 -1.6
v -0.3 1.1 -1.5
v -0.3 1.1 -1.6
v -0.3 1.9 -1.5
v -0.3 1.9 -1.6
v -0.3 2 -1.5
v -0.3 2 -1.6
v -0.2 0 -1.5
v -0.2 0 -1.6
v -0.2 0.1 -1.5
v -0.2 0.1 -1.6
v -0.1 0.5 -1.5
v -0.1 0.5 -1.6
v -0.1 1 -1.5
v -0.1 1 -1.6
v 0.3 0.5 -1.5
v 0.3 0.5 -1.6
v 0.3 0.6 -1.5
v 0.3 0.6 -1.6
v -0.2 0.5 -1.5
v -0.2 0.5 -1.6
v -0.2 0.6 -1.5
v -0.2 0.6 -1.6
v 0.2 0.5 -1.5
v 0.2 0.5 -1.6
v 0.2 1 -1.5
v 0.2 1 -1.6
v 0.3 0 -1.5
v 0.3 0 -1.6
v 0.3 0.1 -1.5
v 0.3 0.1 -1.6
v 0.4 0.1 -1.5
v 0.4 0.1 -1.6
v 0.4 0.2 -1.5
v 0.4 0.2 -1.6
v 0.4 1 -1.5
v 0.4 1 -1.6
v 0.4 1.1 -1.5
v 0.4 1.1 -1.6
v 0.4 1.9 -1.5
v 0.4 1.9 -1.6
v 0.4 2 -1.5
v 0.4 2 -1.6
v 0.5 0.2 -1.5
v 0.5 0.2 -1.6
v 0.5 0.3 -1.5
v 0.5 0.3 -1.6
v 0.5 0.5 -1.5
v 0.5 0.5 -1.6
v 0.5 0.6 -1.5
v 0.5 0.6 -1.6
v 0.5 1.1 -1.5
v 0.5 1.1 -1.6
v 0.5 1.2 -1.5
v 0.5 1.2 -1.6
v 0.5 1.8 -1.5
v 0.5 1.8 -1.6
v 0.5 1.9 -1.5
v 0.5 1.9 -1.6
v 0.6 0.3 -1.5
v 0.6 0.3 -1.6
v 0.6 0.5 -1.5
v 0.6 0.5 -1.6
v 0.6 1.2 -1.5
v 0.6 1.2 -1.6
v 0.6 1.8 -1.5
v 0.6 1.8 -1.6
v -0.5 0.3 -1.5
v -0.5 0.5 -1.5
v -0.5 1.2 -1.5
v -0.5 1.8 -1.5
v -0.4 0.2 -1.5
v -0.4 0.3 -1.5
v -0.4 0.5 -1.5
v -0.4 0.6 -1.5
v -0.4 1.1 -1.5
v -0.4 1.2 -1.5
v -0.4 1.5 -1.5
v -0.4 1.7 -1.5
v -0.4 1.8 -1.5
v -0.4 1.9 -1.5
v -0.3 0.1 -1.5
v -0.3 0.2 -1.5
v -0.3 0.3 -1.5
v -0.3 1 -1.5
v -0.3 1.1 -1.5
v -0.3 1.2 -1.5
v -0.3 1.4 -1.5
v -0.3 1.8 -1.5
v -0.3 1.9 -1.5
v -0.3 2 -1.5
v -0.2 0 -1.5
v -0.2 0.1 -1.5
v -0.2 0.2 -1.5
v -0.2 0.4 -1.5
v -0.2 0.5 -1.5
v -0.2 0.6 -1.5
v -0.2 1.5 -1.5
v -0.2 1.7 -1.5
v -0.1 0.3 -1.5
v -0.1 0.4 -1.5
v -0.1 0.5 -1.5
v -0.1 1 -1.5
v -0.1 1.1 -1.5
v -0.1 1.2 -1.5
v -0.1 1.4 -1.5
v -0.1 1.5 -1.5
v -0.1 1.8 -1.5
v -0.1 1.9 -1.5
v 0 0.3 -1.5
v 0 1.1 -1.5
v 0 1.2 -1.5
v 0 1.4 -1.5
v 0.1 0.3 -1.5
v 0.1 1.1 -1.5
v 0.1 1.2 -1.5
v 0.1 1.4 -1.5
v 0.2 0.3 -1.5
v 0.2 0.4 -1.5
v 0.2 0.5 -1.5
v 0.2 1 -1.5
v 0.2 1.1 -1.5
v 0.2 1.2 -1.5
v 0.2 1.4 -1.5
v 0.2 1.5 -1.5
v 0.2 1.8 -1.5
v 0.2 1.9 -1.5
v 0.3 0 -1.5
v 0.3 0.1 -1.5
v 0.3 0.2 -1.5
v 0.3 0.4 -1.5
v 0.3 0.5 -1.5
v 0.3 0.6 -1.5
v 0.3 1.5 -1.5
v 0.3 1.7 -1.5
v 0.4 0.1 -1.5
v 0.4 0.2 -1.5
v 0.4 0.3 -1.5
v 0.4 1 -1.5
v 0.4 1.1 -1.5
v 0.4 1.2 -1.5
v 0.4 1.4 -1.5
v 0.4 1.8 -1.5
v 0.4 1.9 -1.5
v 0.4 2 -1.5
v 0.5 0.2 -1.5
v 0.5 0.3 -1.5
v 0.5 0.5 -1.5
v 0.5 0.6 -1.5
v 0.5 1.1 -1.5
v 0.5 1.2 -1.5
v 0.5 1.5 -1.5
v 0.5 1.7 -1.5
v 0.5 1.8 -1.5
v 0.5 1.9 -1.5
v 0.6 0.3 -1.5
v 0.6 0.5 -1.5
v 0.6 1.2 -1.5
v 0.6 1.8 -1.5
v -0.5 0.3 -1.6
v -0.5 0.5 -1.6
v -0.5 1.2 -1.6
v -0.5 1.8 -1.6
v -0.4 0.2 -1.6
v -0.4 0.3 -1.6
v -0.4 0.5 -1.6
v -0.4 0.6 -1.6
v -0.4 1.1 -1.6
v -0.4 1.2 -1.6
v -0.4 1.5 -1.6
v -0.4 1.7 -1.6
v -0.4 1.8 -1.6
v -0.4 1.9 -1.6
v -0.3 0.1 -1.6
v -0.3 0.2 -1.6
v -0.3 0.3 -1.6
v -0.3 1 -1.6
v -0.3 1.1 -1.6
v -0.3 1.2 -1.6
v -0.3 1.4 -1.6
v -0.3 1.8 -1.6
v -0.3 1.9 -1.6
v -0.3 2 -1.6
v -0.2 0 -1.6
v -0.2 0.1 -1.6
v -0.2 0.2 -1.6
v -0.2 0.4 -1.6
v -0.2 0.5 -1.6
v -0.2 0.6 -1.6
v -0.2 1.5 -1.6
v -0.2 1.7 -1.6
v -0.1 0.3 -1.6
v -0.1 0.4 -1.6
v -0.1 0.5 -1.6
v -0.1 1 -1.6
v -0.1 1.1 -1.6
v -0.1 1.2 -1.6
v -0.1 1.4 -1.6
v -0.1 1.5 -1.6
v -0.1 1.8 -1.6
v -0.1 1.9 -1.6
v 0 0.3 -1.6
v 0 1.1 -1.6
v 0 1.2 -1.6
v 0 1.4 -1.6
v 0.1 0.3 -1.6
v 0.1 1.1 -1.6
v 0.1 1.2 -1.6
v 0.1 1.4 -1.6
v 0.2 0.3 -1.6
v 0.2 0.4 -1.6
v 0.2 0.5 -1.6
v 0.2 1 -1.6
v 0.2 1.1 -1.6
v 0.2 1.2 -1.6
v 0.2 1.4 -1.6
v 0.2 1.5 -1.6
v 0.2 1.8 -1.6
v 0.2 1.9 -1.6
v 0.3 0 -1.6
v 0.3 0.1 -1.6
v 0.3 0.2 -1.6
v 0.3 0.4 -1.6
v 0.3 0.5 -1.6
v 0.3 0.6 -1.6
v 0.3 1.5 -1.6
v 0.3 1.7 -1.6
v 0.4 0.1 -1.6
v 0.4 0.2 -1.6
v 0.4 0.3 -1.6
v 0.4 1 -1.6
v 0.4 1.1 -1.6
v 0.4 1.2 -1.6
v 0.4 1.4 -1.6
v 0.4 1.8 -1.6
v 0.4 1.9 -1.6
v 0.4 2 -1.6
v 0.5 0.2 -1.6
v 0.5 0.3 -1.6
v 0.5 0.5 -1.6
v 0.5 0.6 -1.6
v 0.5 1.1 -1.6
v 0.5 1.2 -1.6
v 0.5 1.5 -1.6
v 0.5 1.7 -1.6
v 0.5 1.8 -1.6
v 0.5 1.9 -1.6
v 0.6 0.3 -1.6
v 0.6 0.5 -1.6
v 0.6 1.2 -1.6
v 0.6 1.8 -1.6
v -0.2 0 -1.5
v 0.3 0 -1.5
v -0.2 0 -1.6
v 0.3 0 -1.6
v -0.3 0.1 -1.5
v -0.2 0.1 -1.5
v 0.3 0.1 -1.5
v 0.4 0.1 -1.5
v -0.3 0.1 -1.6
v -0.2 0.1 -1.6
v 0.3 0.1 -1.6
v 0.4 0.1 -1.6
v -0.4 0.2 -1.5
v -0.3 0.2 -1.5
v 0.4 0.2 -1.5
v 0.5 0.2 -1.5
v -0.4 0.2 -1.6
v -0.3 0.2 -1.6
v 0.4 0.2 -1.6
v 0.5 0.2 -1.6
v -0.5 0.3 -1.5
v -0.4 0.3 -1.5
v 0.5 0.3 -1.5
v 0.6 0.3 -1.5
v -0.5 0.3 -1.6
v -0.4 0.3 -1.6
v 0.5 0.3 -1.6
v 0.6 0.3 -1.6
v -0.3 1 -1.5
v -0.1 1 -1.5
v 0.2 1 -1.5
v 0.4 1 -1.5
v -0.3 1 -1.6
v -0.1 1 -1.6
v 0.2 1 -1.6
v 0.4 1 -1.6
v -0.4 1.1 -1.5
v -0.3 1.1 -1.5
v 0.4 1.1 -1.5
v 0.5 1.1 -1.5
v -0.4 1.1 -1.6
v -0.3 1.1 -1.6
v 0.4 1.1 -1.6
v 0.5 1.1 -1.6
v -0.5 1.2 -1.5
v -0.4 1.2 -1.5
v 0.5 1.2 -1.5
v 0.6 1.2 -1.5
v -0.5 1.2 -1.6
v -0.4 1.2 -1.6
v 0.5 1.2 -1.6
v 0.6 1.2 -1.6
v -0.5 0.5 -1.5
v -0.4 0.5 -1.5
v -0.2 0.5 -1.5
v -0.1 0.5 -1.5
v 0.2 0.5 -1.5
v 0.3 0.5 -1.5
v 0.5 0.5 -1.5
v 0.6 0.5 -1.5
v -0.5 0.5 -1.6
v -0.4 0.5 -1.6
v -0.2 0.5 -1.6
v -0.1 0.5 -1.6
v 0.2 0.5 -1.6
v 0.3 0.5 -1.6
v 0.5 0.5 -1.6
v 0.6 0.5 -1.6
v -0.4 0.6 -1.5
v -0.2 0.6 -1.5
v 0.3 0.6 -1.5
v 0.5 0.6 -1.5
v -0.4 0.6 -1.6
v -0.2 0.6 -1.6
v 0.3 0.6 -1.6
v 0.5 0.6 -1.6
v -0.5 1.8 -1.5
v -0.4 1.8 -1.5
v 0.5 1.8 -1.5
v 0.6 1.8 -1.5
v -0.5 1.8 -1.6
v -0.4 1.8 -1.6
v 0.5 1.8 -1.6
v 0.6 1.8 -1.6
v -0.4 1.9 -1.5
v -0.3 1.9 -1.5
v 0.4 1.9 -1.5
v 0.5 1.9 -1.5
v -0.4 1.9 -1.6
v -0.3 1.9 -1.6
v 0.4 1.9 -1.6
v 0.5 1.9 -1.6
v -0.3 2 -1.5
v 0.4 2 -1.5
v -0.3 2 -1.6
v 0.4 2 -1.6

# faces
f 3/5/1 2/5/1 1/5/1
f 4/5/1 2/5/1 3/5/1
f 7/3/1 6/3/1 5/3/1
f 8/3/1 6/3/1 7/3/1
f 11/5/1 10/5/1 9/5/1
f 12/5/1 10/5/1 11/5/1
f 15/5/1 14/5/1 13/5/1
f 16/5/1 14/5/1 15/5/1
f 19/3/1 18/3/1 17/3/1
f 20/3/1 18/3/1 19/3/1
f 23/3/1 22/3/1 21/3/1
f 24/3/1 22/3/1 23/3/1
f 27/5/1 26/5/1 25/5/1
f 28/5/1 26/5/1 27/5/1
f 31/3/1 30/3/1 29/3/1
f 32/3/1 30/3/1 31/3/1
f 35/3/1 34/3/1 33/3/1
f 36/3/1 34/3/1 35/3/1
f 39/5/1 38/5/1 37/5/1
f 40/5/1 38/5/1 39/5/1
f 43/5/1 42/5/1 41/5/1
f 44/5/1 42/5/1 43/5/1
f 47/5/1 46/5/1 45/5/1
f 48/5/1 46/5/1 47/5/1
f 49/5/2 50/5/2 51/5/2
f 51/5/2 50/5/2 52/5/2
f 53/5/2 54/5/2 55/5/2
f 55/5/2 54/5/2 56/5/2
f 57/5/2 58/5/2 59/5/2
f 59/5/2 58/5/2 60/5/2
f 61/5/2 62/5/2 63/5/2
f 63/5/2 62/5/2 64/5/2
f 65/3/2 66/3/2 67/3/2
f 67/3/2 66/3/2 68/3/2
f 69/3/2 70/3/2 71/3/2
f 71/3/2 70/3/2 72/3/2
f 73/5/2 74/5/2 75/5/2
f 75/5/2 74/5/2 76/5/2
f 77/5/2 78/5/2 79/5/2
f 79/5/2 78/5/2 80/5/2
f 81/3/2 82/3/2 83/3/2
f 83/3/2 82/3/2 84/3/2
f 85/3/2 86/3/2 87/3/2
f 87/3/2 86/3/2 88/3/2
f 89/5/2 90/5/2 91/5/2
f 91/5/2 90/5/2 92/5/2
f 93/3/2 94/3/2 95/3/2
f 95/3/2 94/3/2 96/3/2
f 102/5/3 98/5/3 97/5/3
f 103/5/3 98/5/3 102/5/3
f 106/3/3 100/3/3 99/3/3
f 107/3/3 100/3/3 106/3/3
f 108/3/3 100/3/3 107/3/3
f 109/3/3 100/3/3 108/3/3
f 112/5/3 102/5/3 101/5/3
f 113/4/3 103/4/3 102/4/3
f 113/5/3 102/5/3 112/5/3
f 115/3/3 106/3/3 105/3/3
f 116/2/3 107/2/3 106/2/3
f 116/3/3 106/3/3 115/3/3
f 117/2/3 107/2/3 116/2/3
f 118/3/3 110/3/3 109/3/3
f 118/2/3 109/2/3 108/2/3
f 119/3/3 110/3/3 118/3/3
f 122/5/3 112/5/3 111/5/3
f 123/4/3 113/4/3 112/4/3
f 123/5/3 112/5/3 122/5/3
f 124/4/3 103/4/3 113/4/3
f 124/4/3 113/4/3 123/4/3
f 125/5/3 104/5/3 103/5/3
f 125/4/3 103/4/3 124/4/3
f 126/5/3 104/5/3 125/5/3
f 127/2/3 107/2/3 117/2/3
f 127/1/3 108/1/3 107/1/3
f 128/2/3 118/2/3 108/2/3
f 128/1/3 108/1/3 127/1/3
f 129/4/3 124/4/3 123/4/3
f 129/4/3 123/4/3 122/4/3
f 130/5/3 125/5/3 124/5/3
f 130/4/3 124/4/3 129/4/3
f 131/5/3 125/5/3 130/5/3
f 132/3/3 115/3/3 114/3/3
f 133/2/3 116/2/3 115/2/3
f 133/3/3 115/3/3 132/3/3
f 134/1/3 117/1/3 116/1/3
f 134/2/3 116/2/3 133/2/3
f 135/2/3 128/2/3 127/2/3
f 135/1/3 117/1/3 134/1/3
f 135/2/3 127/2/3 117/2/3
f 136/2/3 128/2/3 135/2/3
f 137/2/3 118/2/3 128/2/3
f 137/2/3 128/2/3 136/2/3
f 137/1/3 119/1/3 118/1/3
f 138/3/3 120/3/3 119/3/3
f 138/1/3 119/1/3 137/1/3
f 139/5/3 131/5/3 130/5/3
f 139/4/3 129/4/3 122/4/3
f 139/5/3 133/5/3 132/5/3
f 139/5/3 130/5/3 129/5/3
f 139/5/3 132/5/3 131/5/3
f 140/3/3 134/3/3 133/3/3
f 140/5/3 133/5/3 139/5/3
f 141/2/3 136/2/3 135/2/3
f 141/3/3 134/3/3 140/3/3
f 141/2/3 135/2/3 134/2/3
f 142/2/3 136/2/3 141/2/3
f 143/4/3 140/4/3 139/4/3
f 143/4/3 139/4/3 122/4/3
f 144/3/3 141/3/3 140/3/3
f 144/4/3 140/4/3 143/4/3
f 145/1/3 142/1/3 141/1/3
f 145/3/3 141/3/3 144/3/3
f 146/2/3 136/2/3 142/2/3
f 146/1/3 142/1/3 145/1/3
f 147/5/3 144/5/3 143/5/3
f 147/4/3 143/4/3 122/4/3
f 148/5/3 144/5/3 147/5/3
f 149/5/3 144/5/3 148/5/3
f 150/5/3 144/5/3 149/5/3
f 151/3/3 145/3/3 144/3/3
f 151/5/3 144/5/3 150/5/3
f 152/2/3 146/2/3 145/2/3
f 152/3/3 145/3/3 151/3/3
f 153/2/3 136/2/3 146/2/3
f 153/2/3 146/2/3 152/2/3
f 154/1/3 137/1/3 136/1/3
f 154/2/3 136/2/3 153/2/3
f 155/2/3 138/2/3 137/2/3
f 155/1/3 137/1/3 154/1/3
f 156/3/3 120/3/3 138/3/3
f 156/2/3 138/2/3 155/2/3
f 157/5/3 122/5/3 121/5/3
f 158/4/3 147/4/3 122/4/3
f 158/5/3 122/5/3 157/5/3
f 158/4/3 148/4/3 147/4/3
f 159/4/3 148/4/3 158/4/3
f 160/5/3 149/5/3 148/5/3
f 160/4/3 148/4/3 159/4/3
f 161/5/3 149/5/3 160/5/3
f 163/2/3 155/2/3 154/2/3
f 163/2/3 154/2/3 153/2/3
f 164/2/3 155/2/3 163/2/3
f 165/5/3 159/5/3 158/5/3
f 166/4/3 161/4/3 160/4/3
f 166/5/3 159/5/3 165/5/3
f 166/4/3 160/4/3 159/4/3
f 167/4/3 161/4/3 166/4/3
f 168/3/3 151/3/3 150/3/3
f 169/2/3 152/2/3 151/2/3
f 169/3/3 151/3/3 168/3/3
f 170/1/3 153/1/3 152/1/3
f 170/2/3 152/2/3 169/2/3
f 171/2/3 163/2/3 153/2/3
f 171/1/3 153/1/3 170/1/3
f 172/1/3 156/1/3 155/1/3
f 172/2/3 155/2/3 164/2/3
f 173/3/3 120/3/3 156/3/3
f 173/1/3 156/1/3 172/1/3
f 174/3/3 120/3/3 173/3/3
f 175/5/3 167/5/3 166/5/3
f 176/4/3 161/4/3 167/4/3
f 176/5/3 167/5/3 175/5/3
f 177/5/3 162/5/3 161/5/3
f 177/4/3 161/4/3 176/4/3
f 178/5/3 162/5/3 177/5/3
f 179/3/3 170/3/3 169/3/3
f 180/2/3 171/2/3 170/2/3
f 180/3/3 170/3/3 179/3/3
f 181/2/3 163/2/3 171/2/3
f 181/2/3 171/2/3 180/2/3
f 181/1/3 164/1/3 163/1/3
f 182/2/3 172/2/3 164/2/3
f 182/1/3 164/1/3 181/1/3
f 183/3/3 173/3/3 172/3/3
f 183/2/3 172/2/3 182/2/3
f 184/3/3 173/3/3 183/3/3
f 185/5/3 177/5/3 176/5/3
f 186/5/3 177/5/3 185/5/3
f 187/3/3 181/3/3 180/3/3
f 187/3/3 183/3/3 182/3/3
f 187/3/3 182/3/3 181/3/3
f 188/3/3 183/3/3 187/3/3
f 189/5/4 190/5/4 194/5/4
f 194/5/4 190/5/4 195/5/4
f 191/3/4 192/3/4 198/3/4
f 198/3/4 192/3/4 199/3/4
f 199/3/4 192/3/4 200/3/4
f 200/3/4 192/3/4 201/3/4
f 193/5/4 194/5/4 204/5/4
f 194/4/4 195/4/4 205/4/4
f 204/5/4 194/5/4 205/5/4
f 197/3/4 198/3/4 207/3/4
f 198/2/4 199/2/4 208/2/4
f 207/3/4 198/3/4 208/3/4
f 208/2/4 199/2/4 209/2/4
f 201/3/4 202/3/4 210/3/4
f 200/2/4 201/2/4 210/2/4
f 210/3/4 202/3/4 211/3/4
f 203/5/4 204/5/4 214/5/4
f 204/4/4 205/4/4 215/4/4
f 214/5/4 204/5/4 215/5/4
f 205/4/4 195/4/4 216/4/4
f 215/4/4 205/4/4 216/4/4
f 195/5/4 196/5/4 217/5/4
f 216/4/4 195/4/4 217/4/4
f 217/5/4 196/5/4 218/5/4
f 209/2/4 199/2/4 219/2/4
f 199/1/4 200/1/4 219/1/4
f 200/2/4 210/2/4 220/2/4
f 219/1/4 200/1/4 220/1/4
f 215/4/4 216/4/4 221/4/4
f 214/4/4 215/4/4 221/4/4
f 216/5/4 217/5/4 222/5/4
f 221/4/4 216/4/4 222/4/4
f 222/5/4 217/5/4 223/5/4
f 206/3/4 207/3/4 224/3/4
f 207/2/4 208/2/4 225/2/4
f 224/3/4 207/3/4 225/3/4
f 208/1/4 209/1/4 226/1/4
f 225/2/4 208/2/4 226/2/4
f 219/2/4 220/2/4 227/2/4
f 226/1/4 209/1/4 227/1/4
f 209/2/4 219/2/4 227/2/4
f 227/2/4 220/2/4 228/2/4
f 220/2/4 210/2/4 229/2/4
f 228/2/4 220/2/4 229/2/4
f 210/1/4 211/1/4 229/1/4
f 211/3/4 212/3/4 230/3/4
f 229/1/4 211/1/4 230/1/4
f 222/5/4 223/5/4 231/5/4
f 214/4/4 221/4/4 231/4/4
f 224/5/4 225/5/4 231/5/4
f 221/5/4 222/5/4 231/5/4
f 223/5/4 224/5/4 231/5/4
f 225/3/4 226/3/4 232/3/4
f 231/5/4 225/5/4 232/5/4
f 227/2/4 228/2/4 233/2/4
f 232/3/4 226/3/4 233/3/4
f 226/2/4 227/2/4 233/2/4
f 233/2/4 228/2/4 234/2/4
f 231/4/4 232/4/4 235/4/4
f 214/4/4 231/4/4 235/4/4
f 232/3/4 233/3/4 236/3/4
f 235/4/4 232/4/4 236/4/4
f 233/1/4 234/1/4 237/1/4
f 236/3/4 233/3/4 237/3/4
f 234/2/4 228/2/4 238/2/4
f 237/1/4 234/1/4 238/1/4
f 235/5/4 236/5/4 239/5/4
f 214/4/4 235/4/4 239/4/4
f 239/5/4 236/5/4 240/5/4
f 240/5/4 236/5/4 241/5/4
f 241/5/4 236/5/4 242/5/4
f 236/3/4 237/3/4 243/3/4
f 242/5/4 236/5/4 243/5/4
f 237/2/4 238/2/4 244/2/4
f 243/3/4 237/3/4 244/3/4
f 238/2/4 228/2/4 245/2/4
f 244/2/4 238/2/4 245/2/4
f 228/1/4 229/1/4 246/1/4
f 245/2/4 228/2/4 246/2/4
f 229/2/4 230/2/4 247/2/4
f 246/1/4 229/1/4 247/1/4
f 230/3/4 212/3/4 248/3/4
f 247/2/4 230/2/4 248/2/4
f 213/5/4 214/5/4 249/5/4
f 214/4/4 239/4/4 250/4/4
f 249/5/4 214/5/4 250/5/4
f 239/4/4 240/4/4 250/4/4
f 250/4/4 240/4/4 251/4/4
f 240/5/4 241/5/4 252/5/4
f 251/4/4 240/4/4 252/4/4
f 252/5/4 241/5/4 253/5/4
f 246/2/4 247/2/4 255/2/4
f 245/2/4 246/2/4 255/2/4
f 255/2/4 247/2/4 256/2/4
f 250/5/4 251/5/4 257/5/4
f 252/4/4 253/4/4 258/4/4
f 257/5/4 251/5/4 258/5/4
f 251/4/4 252/4/4 258/4/4
f 258/4/4 253/4/4 259/4/4
f 242/3/4 243/3/4 260/3/4
f 243/2/4 244/2/4 261/2/4
f 260/3/4 243/3/4 261/3/4
f 244/1/4 245/1/4 262/1/4
f 261/2/4 244/2/4 262/2/4
f 245/2/4 255/2/4 263/2/4
f 262/1/4 245/1/4 263/1/4
f 247/1/4 248/1/4 264/1/4
f 256/2/4 247/2/4 264/2/4
f 248/3/4 212/3/4 265/3/4
f 264/1/4 248/1/4 265/1/4
f 265/3/4 212/3/4 266/3/4
f 258/5/4 259/5/4 267/5/4
f 259/4/4 253/4/4 268/4/4
f 267/5/4 259/5/4 268/5/4
f 253/5/4 254/5/4 269/5/4
f 268/4/4 253/4/4 269/4/4
f 269/5/4 254/5/4 270/5/4
f 261/3/4 262/3/4 271/3/4
f 262/2/4 263/2/4 272/2/4
f 271/3/4 262/3/4 272/3/4
f 263/2/4 255/2/4 273/2/4
f 272/2/4 263/2/4 273/2/4
f 255/1/4 256/1/4 273/1/4
f 256/2/4 264/2/4 274/2/4
f 273/1/4 256/1/4 274/1/4
f 264/3/4 265/3/4 275/3/4
f 274/2/4 264/2/4 275/2/4
f 275/3/4 265/3/4 276/3/4
f 268/5/4 269/5/4 277/5/4
f 277/5/4 269/5/4 278/5/4
f 272/3/4 273/3/4 279/3/4
f 274/3/4 275/3/4 279/3/4
f 273/3/4 274/3/4 279/3/4
f 279/3/4 275/3/4 280/3/4
f 283/5/5 282/5/5 281/5/5
f 284/5/5 282/5/5 283/5/5
f 289/5/5 286/5/5 285/5/5
f 290/5/5 286/5/5 289/5/5
f 291/5/5 288/5/5 287/5/5
f 292/5/5 288/5/5 291/5/5
f 297/5/5 294/5/5 293/5/5
f 298/5/5 294/5/5 297/5/5
f 299/5/5 296/5/5 295/5/5
f 300/5/5 296/5/5 299/5/5
f 305/5/5 302/5/5 301/5/5
f 306/5/5 302/5/5 305/5/5
f 307/5/5 304/5/5 303/5/5
f 308/5/5 304/5/5 307/5/5
f 313/3/5 310/3/5 309/3/5
f 314/3/5 310/3/5 313/3/5
f 315/3/5 312/3/5 311/3/5
f 316/3/5 312/3/5 315/3/5
f 321/3/5 318/3/5 317/3/5
f 322/3/5 318/3/5 321/3/5
f 323/3/5 320/3/5 319/3/5
f 324/3/5 320/3/5 323/3/5
f 329/3/5 326/3/5 325/3/5
f 330/3/5 326/3/5 329/3/5
f 331/3/5 328/3/5 327/3/5
f 332/3/5 328/3/5 331/3/5
f 333/5/6 334/5/6 341/5/6
f 341/5/6 334/5/6 342/5/6
f 335/5/6 336/5/6 343/5/6
f 343/5/6 336/5/6 344/5/6
f 337/5/6 338/5/6 345/5/6
f 345/5/6 338/5/6 346/5/6
f 339/5/6 340/5/6 347/5/6
f 347/5/6 340/5/6 348/5/6
f 349/5/6 350/5/6 353/5/6
f 353/5/6 350/5/6 354/5/6
f 351/5/6 352/5/6 355/5/6
f 355/5/6 352/5/6 356/5/6
f 357/3/6 358/3/6 361/3/6
f 361/3/6 358/3/6 362/3/6
f 359/3/6 360/3/6 363/3/6
f 363/3/6 360/3/6 364/3/6
f 365/3/6 366/3/6 369/3/6
f 369/3/6 366/3/6 370/3/6
f 367/3/6 368/3/6 371/3/6
f 371/3/6 368/3/6 372/3/6
f 373/3/6 374/3/6 375/3/6
f 375/3/6 374/3/6 376/3/6
