# MagicaVoxel @ Ephtracy

# group
o 

# material
mtllib Wall_With_Windows_But_No_Doors.mtl
usemtl palette

# normals
vn -1 0 0
vn 1 0 0
vn 0 0 1
vn 0 0 -1
vn 0 -1 0
vn 0 1 0

# texcoords
vt 0.873047 0.5
vt 0.978516 0.5
vt 0.990234 0.5

# verts
v -6.4 0 -0.8
v -6.4 0 -1
v -6.4 0.7 -0.8
v -6.4 0.7 -1
v -6.4 5.8 -0.8
v -6.4 5.8 -1
v -1.4 2.2 -0.8
v -1.4 2.2 -1
v -1.4 3.6 -0.8
v -1.4 3.6 -1
v 0 2.2 -0.8
v 0 2.2 -1
v 0 3.6 -0.8
v 0 3.6 -1
v 1.4 2.2 -0.8
v 1.4 2.2 -1
v 1.4 3.6 -0.8
v 1.4 3.6 -1
v 2.8 2.2 -0.8
v 2.8 2.2 -1
v 2.8 3.6 -0.8
v 2.8 3.6 -1
v -2.7 2.2 -0.8
v -2.7 2.2 -1
v -2.7 3.6 -0.8
v -2.7 3.6 -1
v -1.3 2.2 -0.8
v -1.3 2.2 -1
v -1.3 3.6 -0.8
v -1.3 3.6 -1
v 0.0999999 2.2 -0.8
v 0.0999999 2.2 -1
v 0.0999999 3.6 -0.8
v 0.0999999 3.6 -1
v 1.5 2.2 -0.8
v 1.5 2.2 -1
v 1.5 3.6 -0.8
v 1.5 3.6 -1
v 6.4 0 -0.8
v 6.4 0 -1
v 6.4 0.7 -0.8
v 6.4 0.7 -1
v 6.4 5.8 -0.8
v 6.4 5.8 -1
v -6.4 0 -0.8
v -6.4 0.7 -0.8
v -6.4 5.8 -0.8
v -2.8 2.1 -0.8
v -2.8 3.7 -0.8
v -2.7 2.2 -0.8
v -2.7 3.6 -0.8
v -1.4 2.2 -0.8
v -1.4 3.6 -0.8
v -1.3 2.2 -0.8
v -1.3 3.6 -0.8
v 0 2.2 -0.8
v 0 3.6 -0.8
v 0.0999999 2.2 -0.8
v 0.0999999 3.6 -0.8
v 1.4 2.2 -0.8
v 1.4 3.6 -0.8
v 1.5 2.2 -0.8
v 1.5 3.6 -0.8
v 2.8 2.2 -0.8
v 2.8 3.6 -0.8
v 2.9 2.1 -0.8
v 2.9 3.7 -0.8
v 6.4 0 -0.8
v 6.4 0.7 -0.8
v 6.4 5.8 -0.8
v -6.4 0 -1
v -6.4 0.7 -1
v -6.4 5.8 -1
v -2.8 2.1 -1
v -2.8 3.7 -1
v -2.7 2.2 -1
v -2.7 3.6 -1
v -1.4 2.2 -1
v -1.4 3.6 -1
v -1.3 2.2 -1
v -1.3 3.6 -1
v 0 2.2 -1
v 0 3.6 -1
v 0.0999999 2.2 -1
v 0.0999999 3.6 -1
v 1.4 2.2 -1
v 1.4 3.6 -1
v 1.5 2.2 -1
v 1.5 3.6 -1
v 2.8 2.2 -1
v 2.8 3.6 -1
v 2.9 2.1 -1
v 2.9 3.7 -1
v 6.4 0 -1
v 6.4 0.7 -1
v 6.4 5.8 -1
v -6.4 0 -0.8
v 6.4 0 -0.8
v -6.4 0 -1
v 6.4 0 -1
v -2.7 3.6 -0.8
v -1.4 3.6 -0.8
v -1.3 3.6 -0.8
v 0 3.6 -0.8
v 0.0999999 3.6 -0.8
v 1.4 3.6 -0.8
v 1.5 3.6 -0.8
v 2.8 3.6 -0.8
v -2.7 3.6 -1
v -1.4 3.6 -1
v -1.3 3.6 -1
v 0 3.6 -1
v 0.0999999 3.6 -1
v 1.4 3.6 -1
v 1.5 3.6 -1
v 2.8 3.6 -1
v -2.7 2.2 -0.8
v -1.4 2.2 -0.8
v -1.3 2.2 -0.8
v 0 2.2 -0.8
v 0.0999999 2.2 -0.8
v 1.4 2.2 -0.8
v 1.5 2.2 -0.8
v 2.8 2.2 -0.8
v -2.7 2.2 -1
v -1.4 2.2 -1
v -1.3 2.2 -1
v 0 2.2 -1
v 0.0999999 2.2 -1
v 1.4 2.2 -1
v 1.5 2.2 -1
v 2.8 2.2 -1
v -6.4 5.8 -0.8
v 6.4 5.8 -0.8
v -6.4 5.8 -1
v 6.4 5.8 -1

# faces
f 3/3/1 2/3/1 1/3/1
f 4/3/1 2/3/1 3/3/1
f 5/2/1 4/2/1 3/2/1
f 6/2/1 4/2/1 5/2/1
f 9/1/1 8/1/1 7/1/1
f 10/1/1 8/1/1 9/1/1
f 13/1/1 12/1/1 11/1/1
f 14/1/1 12/1/1 13/1/1
f 17/1/1 16/1/1 15/1/1
f 18/1/1 16/1/1 17/1/1
f 21/1/1 20/1/1 19/1/1
f 22/1/1 20/1/1 21/1/1
f 23/1/2 24/1/2 25/1/2
f 25/1/2 24/1/2 26/1/2
f 27/1/2 28/1/2 29/1/2
f 29/1/2 28/1/2 30/1/2
f 31/1/2 32/1/2 33/1/2
f 33/1/2 32/1/2 34/1/2
f 35/1/2 36/1/2 37/1/2
f 37/1/2 36/1/2 38/1/2
f 39/3/2 40/3/2 41/3/2
f 41/3/2 40/3/2 42/3/2
f 41/2/2 42/2/2 43/2/2
f 43/2/2 42/2/2 44/2/2
f 48/2/3 47/2/3 46/2/3
f 49/2/3 47/2/3 48/2/3
f 50/1/3 49/1/3 48/1/3
f 51/1/3 49/1/3 50/1/3
f 52/1/3 50/1/3 48/1/3
f 53/1/3 49/1/3 51/1/3
f 54/1/3 52/1/3 48/1/3
f 54/1/3 53/1/3 52/1/3
f 55/1/3 49/1/3 53/1/3
f 55/1/3 53/1/3 54/1/3
f 56/1/3 54/1/3 48/1/3
f 57/1/3 49/1/3 55/1/3
f 58/1/3 56/1/3 48/1/3
f 58/1/3 57/1/3 56/1/3
f 59/1/3 49/1/3 57/1/3
f 59/1/3 57/1/3 58/1/3
f 60/1/3 58/1/3 48/1/3
f 61/1/3 49/1/3 59/1/3
f 62/1/3 60/1/3 48/1/3
f 62/1/3 61/1/3 60/1/3
f 63/1/3 49/1/3 61/1/3
f 63/1/3 61/1/3 62/1/3
f 64/1/3 62/1/3 48/1/3
f 65/1/3 49/1/3 63/1/3
f 66/2/3 48/2/3 46/2/3
f 66/1/3 65/1/3 64/1/3
f 66/1/3 64/1/3 48/1/3
f 67/1/3 49/1/3 65/1/3
f 67/1/3 65/1/3 66/1/3
f 67/2/3 47/2/3 49/2/3
f 68/3/3 46/3/3 45/3/3
f 69/2/3 66/2/3 46/2/3
f 69/3/3 46/3/3 68/3/3
f 69/2/3 67/2/3 66/2/3
f 70/2/3 47/2/3 67/2/3
f 70/2/3 67/2/3 69/2/3
f 72/2/4 73/2/4 74/2/4
f 74/2/4 73/2/4 75/2/4
f 74/1/4 75/1/4 76/1/4
f 76/1/4 75/1/4 77/1/4
f 74/1/4 76/1/4 78/1/4
f 77/1/4 75/1/4 79/1/4
f 74/1/4 78/1/4 80/1/4
f 78/1/4 79/1/4 80/1/4
f 79/1/4 75/1/4 81/1/4
f 80/1/4 79/1/4 81/1/4
f 74/1/4 80/1/4 82/1/4
f 81/1/4 75/1/4 83/1/4
f 74/1/4 82/1/4 84/1/4
f 82/1/4 83/1/4 84/1/4
f 83/1/4 75/1/4 85/1/4
f 84/1/4 83/1/4 85/1/4
f 74/1/4 84/1/4 86/1/4
f 85/1/4 75/1/4 87/1/4
f 74/1/4 86/1/4 88/1/4
f 86/1/4 87/1/4 88/1/4
f 87/1/4 75/1/4 89/1/4
f 88/1/4 87/1/4 89/1/4
f 74/1/4 88/1/4 90/1/4
f 89/1/4 75/1/4 91/1/4
f 72/2/4 74/2/4 92/2/4
f 90/1/4 91/1/4 92/1/4
f 74/1/4 90/1/4 92/1/4
f 91/1/4 75/1/4 93/1/4
f 92/1/4 91/1/4 93/1/4
f 75/2/4 73/2/4 93/2/4
f 71/3/4 72/3/4 94/3/4
f 72/2/4 92/2/4 95/2/4
f 94/3/4 72/3/4 95/3/4
f 92/2/4 93/2/4 95/2/4
f 93/2/4 73/2/4 96/2/4
f 95/2/4 93/2/4 96/2/4
f 99/3/5 98/3/5 97/3/5
f 100/3/5 98/3/5 99/3/5
f 109/1/5 102/1/5 101/1/5
f 110/1/5 102/1/5 109/1/5
f 111/1/5 104/1/5 103/1/5
f 112/1/5 104/1/5 111/1/5
f 113/1/5 106/1/5 105/1/5
f 114/1/5 106/1/5 113/1/5
f 115/1/5 108/1/5 107/1/5
f 116/1/5 108/1/5 115/1/5
f 117/1/6 118/1/6 125/1/6
f 125/1/6 118/1/6 126/1/6
f 119/1/6 120/1/6 127/1/6
f 127/1/6 120/1/6 128/1/6
f 121/1/6 122/1/6 129/1/6
f 129/1/6 122/1/6 130/1/6
f 123/1/6 124/1/6 131/1/6
f 131/1/6 124/1/6 132/1/6
f 133/2/6 134/2/6 135/2/6
f 135/2/6 134/2/6 136/2/6
