# MagicaVoxel @ Ephtracy

# group
o 

# material
mtllib bus.mtl
usemtl palette

# normals
vn -1 0 0
vn 1 0 0
vn 0 0 1
vn 0 0 -1
vn 0 -1 0
vn 0 1 0

# texcoords
vt 0.728516 0.5
vt 0.986328 0.5
vt 0.994141 0.5

# verts
v -5.2 0 -0.5
v -5.2 0 -0.8
v -5.2 0 -4.1
v -5.2 0 -4.4
v -5.2 5.9 -0.8
v -5.2 5.9 -4.1
v -5.2 6 -4.1
v -5.2 6 -4.4
v -5.2 6.3 -3.8
v -5.2 6.3 -4.1
v -5.2 6.6 -3.5
v -5.2 6.6 -3.8
v -5.2 6.9 -0.5
v -5.2 6.9 -3.5
v -5.1 0 -0.8
v -5.1 0 -4.1
v -5.1 5.9 -0.8
v -5.1 5.9 -4.1
v 4.2 0 -0.5
v 4.2 0 -0.8
v 4.2 1.7 -4.1
v 4.2 1.7 -4.2
v 4.2 1.7 -4.3
v 4.2 1.7 -4.4
v 4.2 5.9 -0.5
v 4.2 5.9 -0.8
v 4.2 5.9 -4.1
v 4.2 5.9 -4.2
v 4.2 5.9 -4.3
v 4.2 5.9 -4.4
v 4.3 0 -0.8
v 4.3 0 -2.9
v 4.3 1.5 -2.2
v 4.3 1.5 -2.9
v 4.3 1.6 -2.2
v 4.3 1.6 -4.1
v 4.3 5.9 -0.8
v 4.3 5.9 -4.1
v -5 0 -0.8
v -5 0 -2.9
v -5 1.5 -2.2
v -5 1.5 -2.9
v -5 1.6 -2.2
v -5 1.6 -4.1
v -5 5.9 -0.8
v -5 5.9 -4.1
v -4.9 0 -0.5
v -4.9 0 -0.8
v -4.9 1.7 -4.1
v -4.9 1.7 -4.2
v -4.9 1.7 -4.3
v -4.9 1.7 -4.4
v -4.9 5.9 -0.5
v -4.9 5.9 -0.8
v -4.9 5.9 -4.1
v -4.9 5.9 -4.2
v -4.9 5.9 -4.3
v -4.9 5.9 -4.4
v 4.4 0 -0.8
v 4.4 0 -4.1
v 4.4 5.9 -0.8
v 4.4 5.9 -4.1
v 4.5 0 -0.5
v 4.5 0 -0.8
v 4.5 0 -4.1
v 4.5 0 -4.4
v 4.5 5.9 -0.8
v 4.5 5.9 -4.1
v 4.5 6 -4.1
v 4.5 6 -4.4
v 4.5 6.3 -3.8
v 4.5 6.3 -4.1
v 4.5 6.6 -3.5
v 4.5 6.6 -3.8
v 4.5 6.9 -0.5
v 4.5 6.9 -3.5
v -5.2 0 -0.5
v -5.2 6.9 -0.5
v -4.9 0 -0.5
v -4.9 5.9 -0.5
v 4.2 0 -0.5
v 4.2 5.9 -0.5
v 4.5 0 -0.5
v 4.5 6.9 -0.5
v -5 1.5 -2.2
v -5 1.6 -2.2
v 4.3 1.5 -2.2
v 4.3 1.6 -2.2
v -5 0 -2.9
v -5 1.5 -2.9
v 4.3 0 -2.9
v 4.3 1.5 -2.9
v -5.2 0 -4.1
v -5.2 5.9 -4.1
v -5.1 0 -4.1
v -5.1 5.9 -4.1
v -5 1.6 -4.1
v -5 5.9 -4.1
v -4.9 1.7 -4.1
v -4.9 5.9 -4.1
v 4.2 1.7 -4.1
v 4.2 5.9 -4.1
v 4.3 1.6 -4.1
v 4.3 5.9 -4.1
v 4.4 0 -4.1
v 4.4 5.9 -4.1
v 4.5 0 -4.1
v 4.5 5.9 -4.1
v -4.9 1.7 -4.2
v -4.9 5.9 -4.2
v 4.2 1.7 -4.2
v 4.2 5.9 -4.2
v -5.2 0 -0.8
v -5.2 5.9 -0.8
v -5.1 0 -0.8
v -5.1 5.9 -0.8
v -5 0 -0.8
v -5 5.9 -0.8
v -4.9 0 -0.8
v -4.9 5.9 -0.8
v 4.2 0 -0.8
v 4.2 5.9 -0.8
v 4.3 0 -0.8
v 4.3 5.9 -0.8
v 4.4 0 -0.8
v 4.4 5.9 -0.8
v 4.5 0 -0.8
v 4.5 5.9 -0.8
v -5.2 6.6 -3.5
v -5.2 6.9 -3.5
v 4.5 6.6 -3.5
v 4.5 6.9 -3.5
v -5.2 6.3 -3.8
v -5.2 6.6 -3.8
v 4.5 6.3 -3.8
v 4.5 6.6 -3.8
v -5.2 6 -4.1
v -5.2 6.3 -4.1
v 4.5 6 -4.1
v 4.5 6.3 -4.1
v -4.9 1.7 -4.3
v -4.9 5.9 -4.3
v 4.2 1.7 -4.3
v 4.2 5.9 -4.3
v -5.2 0 -4.4
v -5.2 6 -4.4
v -4.9 1.7 -4.4
v -4.9 5.9 -4.4
v 4.2 1.7 -4.4
v 4.2 5.9 -4.4
v 4.5 0 -4.4
v 4.5 6 -4.4
v -5.2 0 -0.5
v -4.9 0 -0.5
v 4.2 0 -0.5
v 4.5 0 -0.5
v -5.2 0 -0.8
v -5.1 0 -0.8
v -5 0 -0.8
v -4.9 0 -0.8
v 4.2 0 -0.8
v 4.3 0 -0.8
v 4.4 0 -0.8
v 4.5 0 -0.8
v -5 0 -2.9
v 4.3 0 -2.9
v -5.2 0 -4.1
v -5.1 0 -4.1
v -5 0 -4.1
v 4.3 0 -4.1
v 4.4 0 -4.1
v 4.5 0 -4.1
v -5.2 0 -4.4
v 4.5 0 -4.4
v -5 1.5 -2.2
v 4.3 1.5 -2.2
v -5 1.5 -2.9
v 4.3 1.5 -2.9
v -4.9 5.9 -0.5
v 4.2 5.9 -0.5
v -5.2 5.9 -0.8
v -5.1 5.9 -0.8
v -5 5.9 -0.8
v -4.9 5.9 -0.8
v 4.2 5.9 -0.8
v 4.3 5.9 -0.8
v 4.4 5.9 -0.8
v 4.5 5.9 -0.8
v -5.2 5.9 -4.1
v -5.1 5.9 -4.1
v -5 5.9 -4.1
v -4.9 5.9 -4.1
v 4.2 5.9 -4.1
v 4.3 5.9 -4.1
v 4.4 5.9 -4.1
v 4.5 5.9 -4.1
v -4.9 5.9 -4.2
v 4.2 5.9 -4.2
v -4.9 5.9 -4.3
v 4.2 5.9 -4.3
v -4.9 5.9 -4.4
v 4.2 5.9 -4.4
v -5 1.6 -2.2
v 4.3 1.6 -2.2
v -5 1.6 -4.1
v 4.3 1.6 -4.1
v -4.9 1.7 -4.1
v 4.2 1.7 -4.1
v -4.9 1.7 -4.2
v 4.2 1.7 -4.2
v -4.9 1.7 -4.3
v 4.2 1.7 -4.3
v -4.9 1.7 -4.4
v 4.2 1.7 -4.4
v -5.2 6 -4.1
v 4.5 6 -4.1
v -5.2 6 -4.4
v 4.5 6 -4.4
v -5.2 6.3 -3.8
v 4.5 6.3 -3.8
v -5.2 6.3 -4.1
v 4.5 6.3 -4.1
v -5.2 6.6 -3.5
v 4.5 6.6 -3.5
v -5.2 6.6 -3.8
v 4.5 6.6 -3.8
v -5.2 6.9 -0.5
v 4.5 6.9 -0.5
v -5.2 6.9 -3.5
v 4.5 6.9 -3.5

# faces
f 5/3/1 2/3/1 1/3/1
f 6/3/1 4/3/1 3/3/1
f 7/3/1 4/3/1 6/3/1
f 7/3/1 6/3/1 5/3/1
f 8/3/1 4/3/1 7/3/1
f 9/3/1 7/3/1 5/3/1
f 10/3/1 7/3/1 9/3/1
f 11/3/1 9/3/1 5/3/1
f 12/3/1 9/3/1 11/3/1
f 13/3/1 5/3/1 1/3/1
f 13/3/1 11/3/1 5/3/1
f 14/3/1 11/3/1 13/3/1
f 17/1/1 16/1/1 15/1/1
f 18/1/1 16/1/1 17/1/1
f 25/3/1 20/3/1 19/3/1
f 26/3/1 20/3/1 25/3/1
f 27/3/1 22/3/1 21/3/1
f 28/3/1 22/3/1 27/3/1
f 29/3/1 24/3/1 23/3/1
f 30/3/1 24/3/1 29/3/1
f 33/1/1 32/1/1 31/1/1
f 34/1/1 32/1/1 33/1/1
f 35/1/1 33/1/1 31/1/1
f 37/1/1 35/1/1 31/1/1
f 37/1/1 36/1/1 35/1/1
f 38/1/1 36/1/1 37/1/1
f 39/1/2 40/1/2 41/1/2
f 41/1/2 40/1/2 42/1/2
f 39/1/2 41/1/2 43/1/2
f 39/1/2 43/1/2 45/1/2
f 43/1/2 44/1/2 45/1/2
f 45/1/2 44/1/2 46/1/2
f 47/3/2 48/3/2 53/3/2
f 53/3/2 48/3/2 54/3/2
f 49/3/2 50/3/2 55/3/2
f 55/3/2 50/3/2 56/3/2
f 51/3/2 52/3/2 57/3/2
f 57/3/2 52/3/2 58/3/2
f 59/1/2 60/1/2 61/1/2
f 61/1/2 60/1/2 62/1/2
f 63/3/2 64/3/2 67/3/2
f 65/3/2 66/3/2 68/3/2
f 68/3/2 66/3/2 69/3/2
f 67/3/2 68/3/2 69/3/2
f 69/3/2 66/3/2 70/3/2
f 67/3/2 69/3/2 71/3/2
f 71/3/2 69/3/2 72/3/2
f 67/3/2 71/3/2 73/3/2
f 73/3/2 71/3/2 74/3/2
f 63/3/2 67/3/2 75/3/2
f 67/3/2 73/3/2 75/3/2
f 75/3/2 73/3/2 76/3/2
f 79/3/3 78/3/3 77/3/3
f 80/3/3 78/3/3 79/3/3
f 82/3/3 78/3/3 80/3/3
f 83/3/3 82/3/3 81/3/3
f 84/3/3 78/3/3 82/3/3
f 84/3/3 82/3/3 83/3/3
f 87/2/3 86/2/3 85/2/3
f 88/2/3 86/2/3 87/2/3
f 91/2/3 90/2/3 89/2/3
f 92/2/3 90/2/3 91/2/3
f 95/3/3 94/3/3 93/3/3
f 96/3/3 94/3/3 95/3/3
f 99/3/3 98/3/3 97/3/3
f 100/3/3 98/3/3 99/3/3
f 101/3/3 99/3/3 97/3/3
f 103/3/3 101/3/3 97/3/3
f 103/3/3 102/3/3 101/3/3
f 104/3/3 102/3/3 103/3/3
f 107/3/3 106/3/3 105/3/3
f 108/3/3 106/3/3 107/3/3
f 111/1/3 110/1/3 109/1/3
f 112/1/3 110/1/3 111/1/3
f 113/3/4 114/3/4 115/3/4
f 115/3/4 114/3/4 116/3/4
f 117/3/4 118/3/4 119/3/4
f 119/3/4 118/3/4 120/3/4
f 121/3/4 122/3/4 123/3/4
f 123/3/4 122/3/4 124/3/4
f 125/3/4 126/3/4 127/3/4
f 127/3/4 126/3/4 128/3/4
f 129/3/4 130/3/4 131/3/4
f 131/3/4 130/3/4 132/3/4
f 133/3/4 134/3/4 135/3/4
f 135/3/4 134/3/4 136/3/4
f 137/3/4 138/3/4 139/3/4
f 139/3/4 138/3/4 140/3/4
f 141/1/4 142/1/4 143/1/4
f 143/1/4 142/1/4 144/1/4
f 145/3/4 146/3/4 147/3/4
f 147/3/4 146/3/4 148/3/4
f 145/3/4 147/3/4 149/3/4
f 148/3/4 146/3/4 150/3/4
f 145/3/4 149/3/4 151/3/4
f 149/3/4 150/3/4 151/3/4
f 150/3/4 146/3/4 152/3/4
f 151/3/4 150/3/4 152/3/4
f 157/3/5 154/3/5 153/3/5
f 158/3/5 154/3/5 157/3/5
f 159/3/5 154/3/5 158/3/5
f 160/3/5 154/3/5 159/3/5
f 161/3/5 156/3/5 155/3/5
f 162/3/5 156/3/5 161/3/5
f 163/3/5 156/3/5 162/3/5
f 164/3/5 156/3/5 163/3/5
f 165/1/5 159/1/5 158/1/5
f 166/1/5 163/1/5 162/1/5
f 168/1/5 165/1/5 158/1/5
f 169/2/5 166/2/5 165/2/5
f 169/1/5 165/1/5 168/1/5
f 170/1/5 163/1/5 166/1/5
f 170/2/5 166/2/5 169/2/5
f 171/1/5 163/1/5 170/1/5
f 173/3/5 168/3/5 167/3/5
f 173/3/5 172/3/5 171/3/5
f 173/3/5 171/3/5 170/3/5
f 173/3/5 170/3/5 169/3/5
f 173/3/5 169/3/5 168/3/5
f 174/3/5 172/3/5 173/3/5
f 177/2/5 176/2/5 175/2/5
f 178/2/5 176/2/5 177/2/5
f 184/3/5 180/3/5 179/3/5
f 185/3/5 180/3/5 184/3/5
f 189/3/5 182/3/5 181/3/5
f 190/3/5 182/3/5 189/3/5
f 191/3/5 184/3/5 183/3/5
f 191/3/5 185/3/5 184/3/5
f 191/3/5 186/3/5 185/3/5
f 192/3/5 186/3/5 191/3/5
f 193/3/5 186/3/5 192/3/5
f 194/3/5 186/3/5 193/3/5
f 195/3/5 188/3/5 187/3/5
f 196/3/5 188/3/5 195/3/5
f 197/3/5 193/3/5 192/3/5
f 198/3/5 193/3/5 197/3/5
f 201/3/5 200/3/5 199/3/5
f 202/3/5 200/3/5 201/3/5
f 203/2/6 204/2/6 205/2/6
f 205/2/6 204/2/6 206/2/6
f 207/3/6 208/3/6 209/3/6
f 209/3/6 208/3/6 210/3/6
f 211/3/6 212/3/6 213/3/6
f 213/3/6 212/3/6 214/3/6
f 215/3/6 216/3/6 217/3/6
f 217/3/6 216/3/6 218/3/6
f 219/3/6 220/3/6 221/3/6
f 221/3/6 220/3/6 222/3/6
f 223/3/6 224/3/6 225/3/6
f 225/3/6 224/3/6 226/3/6
f 227/3/6 228/3/6 229/3/6
f 229/3/6 228/3/6 230/3/6
