# MagicaVoxel @ Ephtracy

# group
o 

# material
mtllib mailbox.mtl
usemtl palette

# normals
vn -1 0 0
vn 1 0 0
vn 0 0 1
vn 0 0 -1
vn 0 -1 0
vn 0 1 0

# texcoords
vt 0.654297 0.5
vt 0.896484 0.5
vt 0.904297 0.5
vt 0.990234 0.5
vt 0.994141 0.5

# verts
v -1.2 3.5 0.9
v -1.2 3.5 -0.5
v -1.2 4.2 0.9
v -1.2 4.2 -0.5
v -1.2 4.4 0.9
v -1.2 4.4 -0.5
v -1.1 4.4 0.9
v -1.1 4.4 -0.5
v -1.1 4.5 0.9
v -1.1 4.5 -0.5
v -1 4.5 0.9
v -1 4.5 -0.5
v -1 4.6 0.9
v -1 4.6 -0.5
v -0.8 0 0.2
v -0.8 0 0
v -0.8 3.5 0.2
v -0.8 3.5 0
v -0.8 4.6 0.9
v -0.8 4.6 -0.5
v -0.8 4.7 0.9
v -0.8 4.7 -0.5
v -0.5 4.4 0.8
v -0.5 4.4 -0.4
v -0.5 4.5 0.8
v -0.5 4.5 -0.4
v -0.4 4.3 0.8
v -0.4 4.3 -0.4
v -0.4 4.4 0.8
v -0.4 4.4 -0.4
v -0.3 3.6 0.8
v -0.3 3.6 -0.4
v -0.3 4.2 0.8
v -0.3 4.2 -0.4
v -0.3 4.3 0.8
v -0.3 4.3 -0.4
v -0.1 4.1 0.9
v -0.1 4.1 0.8
v -0.1 4.2 0.9
v -0.1 4.2 0.8
v 0 4.2 0.9
v 0 4.2 0.8
v 0 4.6 0.9
v 0 4.6 0.8
v 0 4.7 0.9
v 0 4.7 0.8
v -1.1 3.6 0.8
v -1.1 3.6 -0.4
v -1.1 4.2 0.8
v -1.1 4.2 -0.4
v -1.1 4.3 0.8
v -1.1 4.3 -0.4
v -1 4.3 0.8
v -1 4.3 -0.4
v -1 4.4 0.8
v -1 4.4 -0.4
v -0.9 4.4 0.8
v -0.9 4.4 -0.4
v -0.9 4.5 0.8
v -0.9 4.5 -0.4
v -0.6 0 0.2
v -0.6 0 0
v -0.6 3.5 0.2
v -0.6 3.5 0
v -0.6 4.6 0.9
v -0.6 4.6 -0.5
v -0.6 4.7 0.9
v -0.6 4.7 -0.5
v -0.4 4.5 0.9
v -0.4 4.5 -0.5
v -0.4 4.6 0.9
v -0.4 4.6 -0.5
v -0.3 4.4 0.9
v -0.3 4.4 -0.5
v -0.3 4.5 0.9
v -0.3 4.5 -0.5
v -0.2 3.5 0.9
v -0.2 3.5 -0.5
v -0.2 4 0.9
v -0.2 4 0.8
v -0.2 4.1 0.9
v -0.2 4.1 0.8
v -0.2 4.2 0.9
v -0.2 4.2 -0.5
v -0.2 4.4 0.9
v -0.2 4.4 -0.5
v 0.0999999 4 0.9
v 0.0999999 4 0.8
v 0.0999999 4.6 0.9
v 0.0999999 4.6 0.8
v 0.0999999 4.7 0.9
v 0.0999999 4.7 0.8
v -1.2 3.5 0.9
v -1.2 4.2 0.9
v -1.2 4.4 0.9
v -1.1 3.6 0.9
v -1.1 4.2 0.9
v -1.1 4.3 0.9
v -1.1 4.4 0.9
v -1.1 4.5 0.9
v -1 4.3 0.9
v -1 4.4 0.9
v -1 4.5 0.9
v -1 4.6 0.9
v -0.9 4.4 0.9
v -0.9 4.5 0.9
v -0.8 4.6 0.9
v -0.8 4.7 0.9
v -0.6 4.6 0.9
v -0.6 4.7 0.9
v -0.5 4.4 0.9
v -0.5 4.5 0.9
v -0.4 4.3 0.9
v -0.4 4.4 0.9
v -0.4 4.5 0.9
v -0.4 4.6 0.9
v -0.3 3.6 0.9
v -0.3 4.2 0.9
v -0.3 4.3 0.9
v -0.3 4.4 0.9
v -0.3 4.5 0.9
v -0.2 3.5 0.9
v -0.2 4 0.9
v -0.2 4.1 0.9
v -0.2 4.2 0.9
v -0.2 4.4 0.9
v -0.1 4.1 0.9
v -0.1 4.2 0.9
v 0 4.2 0.9
v 0 4.6 0.9
v 0 4.7 0.9
v 0.0999999 4 0.9
v 0.0999999 4.6 0.9
v 0.0999999 4.7 0.9
v -0.8 0 0.2
v -0.8 3.5 0.2
v -0.6 0 0.2
v -0.6 3.5 0.2
v -1.1 3.6 -0.4
v -1.1 4.2 -0.4
v -1.1 4.3 -0.4
v -1 4.3 -0.4
v -1 4.4 -0.4
v -0.9 4.4 -0.4
v -0.9 4.5 -0.4
v -0.5 4.4 -0.4
v -0.5 4.5 -0.4
v -0.4 4.3 -0.4
v -0.4 4.4 -0.4
v -0.3 3.6 -0.4
v -0.3 4.2 -0.4
v -0.3 4.3 -0.4
v -1.1 3.6 0.8
v -1.1 4.2 0.8
v -1.1 4.3 0.8
v -1 4.3 0.8
v -1 4.4 0.8
v -0.9 4.4 0.8
v -0.9 4.5 0.8
v -0.5 4.4 0.8
v -0.5 4.5 0.8
v -0.4 4.3 0.8
v -0.4 4.4 0.8
v -0.3 3.6 0.8
v -0.3 4.2 0.8
v -0.3 4.3 0.8
v -0.2 4 0.8
v -0.2 4.1 0.8
v -0.1 4.1 0.8
v -0.1 4.2 0.8
v 0 4.2 0.8
v 0 4.6 0.8
v 0 4.7 0.8
v 0.0999999 4 0.8
v 0.0999999 4.6 0.8
v 0.0999999 4.7 0.8
v -0.8 0 0
v -0.8 3.5 0
v -0.6 0 0
v -0.6 3.5 0
v -1.2 3.5 -0.5
v -1.2 4.2 -0.5
v -1.2 4.4 -0.5
v -1.1 4.4 -0.5
v -1.1 4.5 -0.5
v -1 4.5 -0.5
v -1 4.6 -0.5
v -0.8 4.6 -0.5
v -0.8 4.7 -0.5
v -0.6 4.6 -0.5
v -0.6 4.7 -0.5
v -0.4 4.5 -0.5
v -0.4 4.6 -0.5
v -0.3 4.4 -0.5
v -0.3 4.5 -0.5
v -0.2 3.5 -0.5
v -0.2 4.2 -0.5
v -0.2 4.4 -0.5
v -0.8 0 0.2
v -0.6 0 0.2
v -0.8 0 0
v -0.6 0 0
v -1.2 3.5 0.9
v -0.2 3.5 0.9
v -0.8 3.5 0.2
v -0.6 3.5 0.2
v -0.8 3.5 0
v -0.6 3.5 0
v -1.2 3.5 -0.5
v -0.2 3.5 -0.5
v -0.2 4 0.9
v 0.0999999 4 0.9
v -0.2 4 0.8
v 0.0999999 4 0.8
v -1.1 4.3 0.8
v -1 4.3 0.8
v -0.4 4.3 0.8
v -0.3 4.3 0.8
v -1.1 4.3 -0.4
v -1 4.3 -0.4
v -0.4 4.3 -0.4
v -0.3 4.3 -0.4
v -1 4.4 0.8
v -0.9 4.4 0.8
v -0.5 4.4 0.8
v -0.4 4.4 0.8
v -1 4.4 -0.4
v -0.9 4.4 -0.4
v -0.5 4.4 -0.4
v -0.4 4.4 -0.4
v -0.9 4.5 0.8
v -0.5 4.5 0.8
v -0.9 4.5 -0.4
v -0.5 4.5 -0.4
v -1.1 3.6 0.8
v -0.3 3.6 0.8
v -1.1 3.6 -0.4
v -0.3 3.6 -0.4
v -0.2 4.1 0.9
v -0.1 4.1 0.9
v -0.2 4.1 0.8
v -0.1 4.1 0.8
v -0.1 4.2 0.9
v 0 4.2 0.9
v -0.1 4.2 0.8
v 0 4.2 0.8
v -1.2 4.4 0.9
v -1.1 4.4 0.9
v -0.3 4.4 0.9
v -0.2 4.4 0.9
v -1.2 4.4 -0.5
v -1.1 4.4 -0.5
v -0.3 4.4 -0.5
v -0.2 4.4 -0.5
v -1.1 4.5 0.9
v -1 4.5 0.9
v -0.4 4.5 0.9
v -0.3 4.5 0.9
v -1.1 4.5 -0.5
v -1 4.5 -0.5
v -0.4 4.5 -0.5
v -0.3 4.5 -0.5
v -1 4.6 0.9
v -0.8 4.6 0.9
v -0.6 4.6 0.9
v -0.4 4.6 0.9
v -1 4.6 -0.5
v -0.8 4.6 -0.5
v -0.6 4.6 -0.5
v -0.4 4.6 -0.5
v -0.8 4.7 0.9
v -0.6 4.7 0.9
v 0 4.7 0.9
v 0.0999999 4.7 0.9
v 0 4.7 0.8
v 0.0999999 4.7 0.8
v -0.8 4.7 -0.5
v -0.6 4.7 -0.5

# faces
f 3/3/1 2/3/1 1/3/1
f 4/3/1 2/3/1 3/3/1
f 5/1/1 4/1/1 3/1/1
f 6/1/1 4/1/1 5/1/1
f 9/1/1 8/1/1 7/1/1
f 10/1/1 8/1/1 9/1/1
f 13/1/1 12/1/1 11/1/1
f 14/1/1 12/1/1 13/1/1
f 17/4/1 16/4/1 15/4/1
f 18/4/1 16/4/1 17/4/1
f 21/1/1 20/1/1 19/1/1
f 22/1/1 20/1/1 21/1/1
f 25/1/1 24/1/1 23/1/1
f 26/1/1 24/1/1 25/1/1
f 29/1/1 28/1/1 27/1/1
f 30/1/1 28/1/1 29/1/1
f 33/3/1 32/3/1 31/3/1
f 34/3/1 32/3/1 33/3/1
f 35/1/1 34/1/1 33/1/1
f 36/1/1 34/1/1 35/1/1
f 39/5/1 38/5/1 37/5/1
f 40/5/1 38/5/1 39/5/1
f 43/5/1 42/5/1 41/5/1
f 44/5/1 42/5/1 43/5/1
f 45/4/1 44/4/1 43/4/1
f 46/4/1 44/4/1 45/4/1
f 47/3/2 48/3/2 49/3/2
f 49/3/2 48/3/2 50/3/2
f 49/1/2 50/1/2 51/1/2
f 51/1/2 50/1/2 52/1/2
f 53/1/2 54/1/2 55/1/2
f 55/1/2 54/1/2 56/1/2
f 57/1/2 58/1/2 59/1/2
f 59/1/2 58/1/2 60/1/2
f 61/4/2 62/4/2 63/4/2
f 63/4/2 62/4/2 64/4/2
f 65/1/2 66/1/2 67/1/2
f 67/1/2 66/1/2 68/1/2
f 69/1/2 70/1/2 71/1/2
f 71/1/2 70/1/2 72/1/2
f 73/1/2 74/1/2 75/1/2
f 75/1/2 74/1/2 76/1/2
f 77/3/2 78/3/2 79/3/2
f 79/3/2 78/3/2 80/3/2
f 80/3/2 78/3/2 82/3/2
f 81/3/2 82/3/2 83/3/2
f 82/3/2 78/3/2 84/3/2
f 83/3/2 82/3/2 84/3/2
f 83/1/2 84/1/2 85/1/2
f 85/1/2 84/1/2 86/1/2
f 87/5/2 88/5/2 89/5/2
f 89/5/2 88/5/2 90/5/2
f 89/4/2 90/4/2 91/4/2
f 91/4/2 90/4/2 92/4/2
f 96/3/3 94/3/3 93/3/3
f 97/1/3 95/1/3 94/1/3
f 97/3/3 94/3/3 96/3/3
f 98/1/3 95/1/3 97/1/3
f 99/1/3 95/1/3 98/1/3
f 101/2/3 97/2/3 96/2/3
f 101/1/3 100/1/3 99/1/3
f 101/1/3 99/1/3 98/1/3
f 101/2/3 98/2/3 97/2/3
f 102/1/3 100/1/3 101/1/3
f 103/1/3 100/1/3 102/1/3
f 105/2/3 102/2/3 101/2/3
f 105/1/3 104/1/3 103/1/3
f 105/1/3 103/1/3 102/1/3
f 106/1/3 104/1/3 105/1/3
f 107/1/3 104/1/3 106/1/3
f 109/1/3 107/1/3 106/1/3
f 109/1/3 108/1/3 107/1/3
f 110/1/3 108/1/3 109/1/3
f 111/2/3 105/2/3 101/2/3
f 111/2/3 106/2/3 105/2/3
f 112/1/3 109/1/3 106/1/3
f 112/2/3 106/2/3 111/2/3
f 113/2/3 101/2/3 96/2/3
f 113/2/3 111/2/3 101/2/3
f 114/1/3 112/1/3 111/1/3
f 114/2/3 111/2/3 113/2/3
f 115/1/3 109/1/3 112/1/3
f 115/1/3 112/1/3 114/1/3
f 116/1/3 109/1/3 115/1/3
f 117/3/3 96/3/3 93/3/3
f 117/2/3 113/2/3 96/2/3
f 118/2/3 113/2/3 117/2/3
f 119/1/3 114/1/3 113/1/3
f 119/2/3 113/2/3 118/2/3
f 119/1/3 115/1/3 114/1/3
f 120/1/3 115/1/3 119/1/3
f 121/1/3 115/1/3 120/1/3
f 122/3/3 118/3/3 117/3/3
f 122/3/3 117/3/3 93/3/3
f 123/3/3 118/3/3 122/3/3
f 124/3/3 118/3/3 123/3/3
f 125/1/3 120/1/3 119/1/3
f 125/3/3 118/3/3 124/3/3
f 125/1/3 119/1/3 118/1/3
f 126/1/3 120/1/3 125/1/3
f 127/5/3 124/5/3 123/5/3
f 129/5/3 128/5/3 127/5/3
f 132/5/3 130/5/3 129/5/3
f 132/5/3 129/5/3 127/5/3
f 132/5/3 127/5/3 123/5/3
f 133/4/3 131/4/3 130/4/3
f 133/5/3 130/5/3 132/5/3
f 134/4/3 131/4/3 133/4/3
f 137/4/3 136/4/3 135/4/3
f 138/4/3 136/4/3 137/4/3
f 142/1/3 141/1/3 140/1/3
f 144/1/3 143/1/3 142/1/3
f 146/1/3 144/1/3 142/1/3
f 146/1/3 145/1/3 144/1/3
f 147/1/3 145/1/3 146/1/3
f 148/1/3 142/1/3 140/1/3
f 148/1/3 146/1/3 142/1/3
f 149/1/3 146/1/3 148/1/3
f 150/3/3 140/3/3 139/3/3
f 151/1/3 148/1/3 140/1/3
f 151/3/3 140/3/3 150/3/3
f 152/1/3 148/1/3 151/1/3
f 153/2/4 154/2/4 156/2/4
f 154/2/4 155/2/4 156/2/4
f 156/2/4 157/2/4 158/2/4
f 156/2/4 158/2/4 160/2/4
f 158/2/4 159/2/4 160/2/4
f 160/2/4 159/2/4 161/2/4
f 153/2/4 156/2/4 162/2/4
f 156/2/4 160/2/4 162/2/4
f 162/2/4 160/2/4 163/2/4
f 153/2/4 162/2/4 164/2/4
f 164/2/4 162/2/4 165/2/4
f 165/2/4 162/2/4 166/2/4
f 167/5/4 168/5/4 169/5/4
f 169/5/4 170/5/4 171/5/4
f 169/5/4 171/5/4 174/5/4
f 167/5/4 169/5/4 174/5/4
f 171/5/4 172/5/4 174/5/4
f 172/4/4 173/4/4 175/4/4
f 174/5/4 172/5/4 175/5/4
f 175/4/4 173/4/4 176/4/4
f 177/4/4 178/4/4 179/4/4
f 179/4/4 178/4/4 180/4/4
f 182/1/4 183/1/4 184/1/4
f 184/1/4 185/1/4 186/1/4
f 186/1/4 187/1/4 188/1/4
f 186/1/4 188/1/4 190/1/4
f 188/1/4 189/1/4 190/1/4
f 190/1/4 189/1/4 191/1/4
f 184/1/4 186/1/4 192/1/4
f 186/1/4 190/1/4 192/1/4
f 192/1/4 190/1/4 193/1/4
f 182/1/4 184/1/4 194/1/4
f 184/1/4 192/1/4 194/1/4
f 194/1/4 192/1/4 195/1/4
f 181/3/4 182/3/4 196/3/4
f 182/1/4 194/1/4 197/1/4
f 196/3/4 182/3/4 197/3/4
f 197/1/4 194/1/4 198/1/4
f 201/4/5 200/4/5 199/4/5
f 202/4/5 200/4/5 201/4/5
f 205/3/5 204/3/5 203/3/5
f 206/3/5 204/3/5 205/3/5
f 207/3/5 205/3/5 203/3/5
f 208/3/5 204/3/5 206/3/5
f 209/3/5 207/3/5 203/3/5
f 209/3/5 208/3/5 207/3/5
f 210/3/5 204/3/5 208/3/5
f 210/3/5 208/3/5 209/3/5
f 213/5/5 212/5/5 211/5/5
f 214/5/5 212/5/5 213/5/5
f 219/1/5 216/1/5 215/1/5
f 220/1/5 216/1/5 219/1/5
f 221/1/5 218/1/5 217/1/5
f 222/1/5 218/1/5 221/1/5
f 227/1/5 224/1/5 223/1/5
f 228/1/5 224/1/5 227/1/5
f 229/1/5 226/1/5 225/1/5
f 230/1/5 226/1/5 229/1/5
f 233/1/5 232/1/5 231/1/5
f 234/1/5 232/1/5 233/1/5
f 235/3/6 236/3/6 237/3/6
f 237/3/6 236/3/6 238/3/6
f 239/5/6 240/5/6 241/5/6
f 241/5/6 240/5/6 242/5/6
f 243/5/6 244/5/6 245/5/6
f 245/5/6 244/5/6 246/5/6
f 247/1/6 248/1/6 251/1/6
f 251/1/6 248/1/6 252/1/6
f 249/1/6 250/1/6 253/1/6
f 253/1/6 250/1/6 254/1/6
f 255/1/6 256/1/6 259/1/6
f 259/1/6 256/1/6 260/1/6
f 257/1/6 258/1/6 261/1/6
f 261/1/6 258/1/6 262/1/6
f 263/1/6 264/1/6 267/1/6
f 267/1/6 264/1/6 268/1/6
f 265/1/6 266/1/6 269/1/6
f 269/1/6 266/1/6 270/1/6
f 273/4/6 274/4/6 275/4/6
f 275/4/6 274/4/6 276/4/6
f 271/1/6 272/1/6 277/1/6
f 277/1/6 272/1/6 278/1/6
